<?xml version="1.0" encoding="UTF-8" standalone="no"?>
<svg
   xmlns:dc="http://purl.org/dc/elements/1.1/"
   xmlns:cc="http://creativecommons.org/ns#"
   xmlns:rdf="http://www.w3.org/1999/02/22-rdf-syntax-ns#"
   xmlns:svg="http://www.w3.org/2000/svg"
   xmlns="http://www.w3.org/2000/svg"
   xmlns:sodipodi="http://sodipodi.sourceforge.net/DTD/sodipodi-0.dtd"
   xmlns:inkscape="http://www.inkscape.org/namespaces/inkscape"
   width="64"
   height="62"
   viewBox="0 0 64 62"
   fill="none"
   version="1.1"
   id="svg66"
   sodipodi:docname="favicon2.svg"
   inkscape:version="1.0.1 (3bc2e813f5, 2020-09-07)">
  <metadata
     id="metadata72">
    <rdf:RDF>
      <cc:Work
         rdf:about="">
        <dc:format>image/svg+xml</dc:format>
        <dc:type
           rdf:resource="http://purl.org/dc/dcmitype/StillImage" />
        <dc:title></dc:title>
      </cc:Work>
    </rdf:RDF>
  </metadata>
  <defs
     id="defs70" />
  <sodipodi:namedview
     pagecolor="#ffffff"
     bordercolor="#666666"
     borderopacity="1"
     objecttolerance="10"
     gridtolerance="10"
     guidetolerance="10"
     inkscape:pageopacity="0"
     inkscape:pageshadow="2"
     inkscape:window-width="1914"
     inkscape:window-height="1042"
     id="namedview68"
     showgrid="false"
     inkscape:zoom="4.2792208"
     inkscape:cx="92.730606"
     inkscape:cy="59.042489"
     inkscape:window-x="1920"
     inkscape:window-y="21"
     inkscape:window-maximized="1"
     inkscape:current-layer="svg66"
     inkscape:document-rotation="0"
     fit-margin-top="0"
     fit-margin-left="0"
     fit-margin-right="0"
     fit-margin-bottom="0" />
  <path
     fill-rule="evenodd"
     clip-rule="evenodd"
     d="m 32,16.3863 c -3.9628,0 -7.7103,-0.6244 -10.5519,-1.7581 -3.2633,-1.3019 -5.0606,-3.2 -5.0605,-5.34478 0,-2.14467 1.7973,-4.04276 5.0606,-5.34464 2.0331,-0.81104 4.5312,-1.35971 7.2389,-1.6073 -0.4351,-0.56838 -0.395,-1.38624 0.1232,-1.906932 0.5632,-0.566064 1.4764,-0.566064 2.0397,0 l 2.1697,2.180902 c 0.5633,0.56607 0.5633,1.48395 0,2.05001 L 30.8499,6.83622 C 30.5683,7.11932 30.1991,7.2608 29.83,7.2608 29.4609,7.2608 29.0918,7.11932 28.8101,6.83622 28.3867,6.41048 28.2818,5.78585 28.4953,5.26153 26.2425,5.49927 24.1862,5.9656 22.5124,6.63342 c -2.3917,0.95412 -3.2402,2.02392 -3.2402,2.65 0,0.62607 0.8485,1.69588 3.2402,2.64998 2.511,1.0018 5.8805,1.5535 9.4876,1.5535 3.6071,0 6.9766,-0.5517 9.4877,-1.5535 2.3916,-0.9541 3.2402,-2.02376 3.2402,-2.64998 0,-1.01617 -1.9711,-2.52069 -5.7382,-3.43031 -0.7745,-0.187 -1.2515,-0.96963 -1.0655,-1.74806 0.186,-0.77843 0.965,-1.25795 1.7393,-1.07081 5.0518,1.21968 7.949,3.49757 7.949,6.24932 0,2.14464 -1.7973,4.04274 -5.0605,5.34464 -2.8417,1.1337 -6.5892,1.7581 -10.552,1.7581 z m 22.0449,6.5453 C 62.2728,25.5632 64,28.8933 64,31.2235 c 0,0.038 -6e-4,0.0763 -0.0014,0.1147 -0.0309,8.1904 -3.3638,15.8827 -9.395,21.6709 C 48.5626,58.807 40.535,62 32,62 23.465,62 15.4376,58.807 9.39636,53.0091 3.36525,47.2209 0.0323082,39.5286 0.00144233,31.3382 5.76933e-4,31.2998 0,31.2615 0,31.2235 0,28.8933 1.72719,25.5632 9.95526,22.9314 15.8645,21.0416 23.6935,20.0008 32.0001,20.0008 c 5.5783,0 10.9401,0.4701 15.6509,1.3507 l 3.5904,-5.4817 c 0.4381,-0.6687 1.3324,-0.854 1.9978,-0.4138 0.6653,0.4403 0.8497,1.3392 0.4116,2.0079 l -2.969,4.533 c 1.1771,0.2835 2.3015,0.5952 3.3631,0.9347 z m 7.0704,8.2919 c 0,-1.8431 -3.0443,-3.9617 -7.9452,-5.5292 -1.2985,-0.4153 -2.6985,-0.7871 -4.1802,-1.1141 l -5.9256,9.0472 c 4.4305,0.5414 8.4738,1.405 11.7805,2.5409 3.9094,-1.4856 6.2705,-3.322 6.2705,-4.9448 z m -46.7941,6.4868 c 5.0865,1.1922 11.2202,1.8366 17.6788,1.8366 1.2755,0 2.5381,-0.0254 3.7825,-0.0749 l 2.2312,-3.4064 c -1.9628,-0.128 -3.9766,-0.1946 -6.0141,-0.1946 -6.4178,0 -12.6031,0.6551 -17.6784,1.8393 z m 35.3577,0 c -2.5535,-0.5958 -5.3884,-1.0572 -8.3923,-1.369 l -1.9101,2.9164 C 43.0908,38.96 46.5792,38.4368 49.6789,37.7103 Z M 31.9999,22.9001 c -8.0178,0 -15.5361,0.9924 -21.1702,2.7942 -4.90071,1.5673 -7.94504,3.6861 -7.94504,5.5292 0,1.623 2.36124,3.4593 6.27068,4.9448 5.92166,-2.0343 14.20426,-3.1966 22.84406,-3.1966 2.6633,0 5.2918,0.1113 7.8286,0.3236 l 6.0963,-9.3077 C 41.688,23.2772 36.9391,22.9001 31.9999,22.9001 Z M 3.41054,36.5064 C 5.9962,49.3603 17.8318,59.1008 32,59.1008 c 14.1682,0 26.0038,-9.7403 28.5895,-22.5944 -1.4976,1.0406 -3.6064,2.0694 -6.5446,3.009 C 48.1358,41.4053 40.3067,42.4461 32,42.4461 23.6933,42.4461 15.8643,41.4053 9.95512,39.5154 7.01694,38.5757 4.90811,37.5469 3.41054,36.5064 Z"
     fill="#ffb84d"
     id="path64"
     sodipodi:insensitive="true" />
</svg>
